<?xml version="1.0" standalone="no"?>
<!DOCTYPE svg PUBLIC "-//W3C//DTD SVG 20010904//EN"
 "http://www.w3.org/TR/2001/REC-SVG-20010904/DTD/svg10.dtd">
<svg version="1.0" xmlns="http://www.w3.org/2000/svg"
 width="90.000000pt" height="90.000000pt" viewBox="0 0 90.000000 90.000000"
 preserveAspectRatio="xMidYMid meet">
<metadata>
Created by potrace 1.11, written by Peter Selinger 2001-2013
</metadata>
<g transform="translate(0.000000,90.000000) scale(0.100000,-0.100000)"
fill="#000000" stroke="none">
<path d="M140 803 c-8 -3 -23 -12 -32 -21 -16 -14 -18 -42 -18 -314 0 -285 1
-298 19 -298 10 0 24 7 32 16 34 41 56 44 357 44 270 0 291 1 313 19 24 19 24
20 27 263 3 230 2 246 -17 269 l-19 24 -324 2 c-177 1 -330 -1 -338 -4z m658
-35 c18 -18 17 -481 -1 -496 -8 -7 -116 -12 -308 -14 l-296 -3 -41 -28 -42
-27 0 271 c0 167 4 278 10 290 10 18 25 19 338 19 242 0 331 -3 340 -12z"/>
<path d="M357 693 c-3 -5 -19 -62 -37 -127 -32 -119 -35 -196 -9 -212 11 -6
55 30 70 57 11 21 69 234 69 254 0 8 -16 19 -37 24 -45 13 -50 13 -56 4z m52
-32 c12 -8 10 -26 -14 -118 -16 -63 -37 -118 -49 -131 l-21 -23 -6 25 c-9 31
49 256 65 256 6 0 17 -4 25 -9z"/>
<path d="M382 367 c-12 -13 -22 -27 -22 -30 0 -4 62 -6 138 -5 l137 3 3 28 3
27 -119 0 c-111 0 -120 -1 -140 -23z m181 -4 c-29 -2 -77 -2 -105 0 -29 2 -6
3 52 3 58 0 81 -1 53 -3z"/>
</g>
</svg>
